<svg width="511" height="511" viewBox="0 0 511 511" fill="none" xmlns="http://www.w3.org/2000/svg">
<rect width="511" height="511" rx="30" fill="#BEB1F0"/>
<ellipse cx="130.333" cy="236.833" rx="46.6667" ry="45.8333" fill="#474184"/>
<path d="M233 387.514C233 440.357 189.124 387.514 135 387.514C80.8761 387.514 37 440.357 37 387.514C37 334.671 80.8761 291.833 135 291.833C189.124 291.833 233 334.671 233 387.514Z" fill="#474184"/>
<ellipse cx="371.333" cy="236.833" rx="46.6667" ry="45.8333" fill="#474184"/>
<path d="M474 387.514C474 440.357 430.124 387.514 376 387.514C321.876 387.514 278 440.357 278 387.514C278 334.671 321.876 291.833 376 291.833C430.124 291.833 474 334.671 474 387.514Z" fill="#474184"/>
<g filter="url(#filter0_d)">
<circle cx="242.619" cy="152.81" r="53.8095" fill="#6256ED"/>
<path d="M361 329.713C361 391.752 310.408 329.713 248 329.713C185.592 329.713 135 391.752 135 329.713C135 267.674 185.592 217.381 248 217.381C310.408 217.381 361 267.674 361 329.713Z" fill="#6256ED"/>
</g>
<defs>
<filter id="filter0_d" x="131" y="99" width="234" height="266.286" filterUnits="userSpaceOnUse" color-interpolation-filters="sRGB">
<feFlood flood-opacity="0" result="BackgroundImageFix"/>
<feColorMatrix in="SourceAlpha" type="matrix" values="0 0 0 0 0 0 0 0 0 0 0 0 0 0 0 0 0 0 127 0"/>
<feOffset dy="4"/>
<feGaussianBlur stdDeviation="2"/>
<feColorMatrix type="matrix" values="0 0 0 0 0 0 0 0 0 0 0 0 0 0 0 0 0 0 0.25 0"/>
<feBlend mode="normal" in2="BackgroundImageFix" result="effect1_dropShadow"/>
<feBlend mode="normal" in="SourceGraphic" in2="effect1_dropShadow" result="shape"/>
</filter>
</defs>
</svg>
