<svg width="33" height="44" viewBox="0 0 33 44" fill="none" xmlns="http://www.w3.org/2000/svg">
<path d="M0 0H19.9737V13.0204H33V44H0V0Z" fill="#8DCF65"/>
<path d="M20 13H33L20 0V13Z" fill="#3BA645"/>
<path d="M11.4766 24.0898C11.4766 25.0326 11.2201 25.7539 10.707 26.2539C10.1966 26.7513 9.46094 27 8.5 27H6.91797V21.2891H8.66797C9.55599 21.2891 10.2461 21.5352 10.7383 22.0273C11.2305 22.5195 11.4766 23.207 11.4766 24.0898ZM10.7734 24.1133C10.7734 23.3685 10.5859 22.8073 10.2109 22.4297C9.83854 22.0521 9.28385 21.8633 8.54688 21.8633H7.58203V26.4258H8.39062C9.18229 26.4258 9.77734 26.2318 10.1758 25.8438C10.5742 25.4531 10.7734 24.8763 10.7734 24.1133ZM17.7109 24.1367C17.7109 25.0508 17.4792 25.7695 17.0156 26.293C16.5547 26.8164 15.9128 27.0781 15.0898 27.0781C14.2487 27.0781 13.599 26.8216 13.1406 26.3086C12.6849 25.793 12.457 25.0664 12.457 24.1289C12.457 23.1992 12.6862 22.4792 13.1445 21.9688C13.6029 21.4557 14.2539 21.1992 15.0977 21.1992C15.918 21.1992 16.5586 21.4596 17.0195 21.9805C17.4805 22.5013 17.7109 23.2201 17.7109 24.1367ZM13.1602 24.1367C13.1602 24.9102 13.3242 25.4974 13.6523 25.8984C13.9831 26.2969 14.4622 26.4961 15.0898 26.4961C15.7227 26.4961 16.2005 26.2969 16.5234 25.8984C16.8464 25.5 17.0078 24.9128 17.0078 24.1367C17.0078 23.3685 16.8464 22.7865 16.5234 22.3906C16.2031 21.9922 15.7279 21.793 15.0977 21.793C14.4648 21.793 13.9831 21.9935 13.6523 22.3945C13.3242 22.793 13.1602 23.3737 13.1602 24.1367ZM21.4336 21.8008C20.806 21.8008 20.3099 22.0104 19.9453 22.4297C19.5833 22.8464 19.4023 23.418 19.4023 24.1445C19.4023 24.8919 19.5768 25.4701 19.9258 25.8789C20.2773 26.2852 20.7773 26.4883 21.4258 26.4883C21.8242 26.4883 22.2786 26.4167 22.7891 26.2734V26.8555C22.3932 27.0039 21.9049 27.0781 21.3242 27.0781C20.4831 27.0781 19.8333 26.8229 19.375 26.3125C18.9193 25.8021 18.6914 25.0768 18.6914 24.1367C18.6914 23.5482 18.8008 23.0326 19.0195 22.5898C19.2409 22.1471 19.5586 21.806 19.9727 21.5664C20.3893 21.3268 20.8789 21.207 21.4414 21.207C22.0404 21.207 22.5638 21.3164 23.0117 21.5352L22.7305 22.1055C22.2982 21.9023 21.8659 21.8008 21.4336 21.8008ZM27.8359 27H27.082L25.5469 24.4883L23.9844 27H23.2812L25.1797 24.0156L23.4102 21.2891H24.1445L25.5625 23.5508L26.9922 21.2891H27.6992L25.9297 23.9922L27.8359 27Z" fill="#4E4747"/>
</svg>
