<svg width="128" height="128" viewBox="0 0 128 128" fill="none" xmlns="http://www.w3.org/2000/svg">
<circle cx="64" cy="64" r="64" fill="#CE1515"/>
<path d="M29.4137 52.0276C44.9042 43.3843 69.6514 45.1482 69.6514 45.1482V65.9628H41.5039C41.5039 65.9628 43.7708 67.021 42.4485 75.1351C41.1262 83.2493 31.1138 83.0782 24.8799 80.7798C18.646 78.4814 13.9232 60.671 29.4137 52.0276Z" fill="white"/>
<path d="M97.5863 52.0276C82.0958 43.3843 57.3486 45.1482 57.3486 45.1482V65.9628H85.4961C85.4961 65.9628 83.2292 67.021 84.5515 75.1352C85.8738 83.2493 95.8862 83.0782 102.12 80.7798C108.354 78.4814 113.077 60.671 97.5863 52.0276Z" fill="white"/>
</svg>
