<svg width="127" height="128" viewBox="0 0 127 128" fill="none" xmlns="http://www.w3.org/2000/svg">
<path fill-rule="evenodd" clip-rule="evenodd" d="M64.9045 0.585787C64.1235 -0.195262 62.8572 -0.195262 62.0761 0.585786L36.8507 25.8112V17.1716H19.8507V42.8112L0.105562 62.5563C-0.0351874 62.6971 -0.0351875 62.9253 0.105562 63.066C0.173153 63.1336 0.264825 63.1716 0.360413 63.1716L14.8507 63.1716V127.172H49.8507V95.1716C49.8507 87.4396 56.1187 81.1716 63.8507 81.1716C71.5827 81.1716 77.8507 87.4396 77.8507 95.1716V127.172H111.851V63.1716L126.62 63.1716C126.716 63.1716 126.807 63.1336 126.875 63.066C127.016 62.9253 127.016 62.6971 126.875 62.5563L64.9045 0.585787ZM63.5721 126.369C63.645 126.296 63.5934 126.172 63.4903 126.172C63.3873 126.172 63.3357 126.296 63.4085 126.369C63.4537 126.414 63.5269 126.414 63.5721 126.369Z" fill="currentColor"/>
</svg>
