<svg width="190" height="230" viewBox="0 0 190 230" fill="none" xmlns="http://www.w3.org/2000/svg">
<g filter="url(#filter0_d)">
<path fill-rule="evenodd" clip-rule="evenodd" d="M26.7385 18.5832C25.7996 18.8377 25.7399 20.147 26.6518 20.4858L63.6969 34.2496C60.8335 39.4664 59.2051 45.457 59.2051 51.828C59.2051 72.0341 75.5853 88.4143 95.7914 88.4143C115.997 88.4143 132.378 72.0341 132.378 51.828C132.378 45.3347 130.686 39.2365 127.72 33.95L162.764 21.0144C163.672 20.6794 163.622 19.3795 162.692 19.1145L95.7125 0.0382463C95.5377 -0.0115579 95.3525 -0.0127428 95.177 0.0348195L26.7385 18.5832ZM147.899 117.24C147.899 133.16 125.066 146.065 96.9001 146.065C68.734 146.065 45.9009 133.16 45.9009 117.24C45.9009 101.32 68.734 88.4143 96.9001 88.4143C125.066 88.4143 147.899 101.32 147.899 117.24Z" fill="url(#paint0_linear)"/>
</g>
<path d="M11.55 218.42C8.75 218.42 6.51 217.454 4.83 215.522C3.15 213.562 2.31 210.65 2.31 206.786C2.31 202.922 3.15 200.01 4.83 198.05C6.538 196.062 8.792 195.068 11.592 195.068C13.328 195.068 14.742 195.39 15.834 196.034C16.954 196.678 17.864 197.462 18.564 198.386H18.816C18.788 198.022 18.732 197.49 18.648 196.79C18.592 196.062 18.564 195.488 18.564 195.068V186.08H22.26V218H19.278L18.732 214.976H18.564C17.892 215.928 16.996 216.74 15.876 217.412C14.756 218.084 13.314 218.42 11.55 218.42ZM12.138 215.354C14.518 215.354 16.184 214.71 17.136 213.422C18.116 212.106 18.606 210.132 18.606 207.5V206.828C18.606 204.028 18.144 201.886 17.22 200.402C16.296 198.89 14.588 198.134 12.096 198.134C10.108 198.134 8.61 198.932 7.602 200.528C6.622 202.096 6.132 204.21 6.132 206.87C6.132 209.558 6.622 211.644 7.602 213.128C8.61 214.612 10.122 215.354 12.138 215.354ZM53.1818 206.702C53.1818 210.426 52.2298 213.31 50.3258 215.354C48.4498 217.398 45.9018 218.42 42.6818 218.42C40.6938 218.42 38.9158 217.972 37.3478 217.076C35.8078 216.152 34.5898 214.822 33.6938 213.086C32.7978 211.322 32.3498 209.194 32.3498 206.702C32.3498 202.978 33.2878 200.108 35.1638 198.092C37.0398 196.076 39.5878 195.068 42.8078 195.068C44.8518 195.068 46.6438 195.53 48.1838 196.454C49.7518 197.35 50.9698 198.666 51.8378 200.402C52.7338 202.11 53.1818 204.21 53.1818 206.702ZM36.1718 206.702C36.1718 209.362 36.6898 211.476 37.7258 213.044C38.7898 214.584 40.4698 215.354 42.7658 215.354C45.0338 215.354 46.6998 214.584 47.7638 213.044C48.8278 211.476 49.3598 209.362 49.3598 206.702C49.3598 204.042 48.8278 201.956 47.7638 200.444C46.6998 198.932 45.0198 198.176 42.7238 198.176C40.4278 198.176 38.7618 198.932 37.7258 200.444C36.6898 201.956 36.1718 204.042 36.1718 206.702ZM63.7435 218V188.012H67.5235V214.64H80.6275V218H63.7435ZM98.1589 195.068C100.091 195.068 101.743 195.488 103.115 196.328C104.515 197.168 105.579 198.358 106.307 199.898C107.063 201.41 107.441 203.188 107.441 205.232V207.458H92.0269C92.0829 210.006 92.7269 211.952 93.9589 213.296C95.2189 214.612 96.9689 215.27 99.2089 215.27C100.637 215.27 101.897 215.144 102.989 214.892C104.109 214.612 105.257 214.22 106.433 213.716V216.95C105.285 217.454 104.151 217.818 103.031 218.042C101.911 218.294 100.581 218.42 99.0409 218.42C96.9129 218.42 95.0229 217.986 93.3709 217.118C91.7469 216.25 90.4729 214.962 89.5489 213.254C88.6529 211.518 88.2049 209.404 88.2049 206.912C88.2049 204.448 88.6109 202.334 89.4229 200.57C90.2629 198.806 91.4249 197.448 92.9089 196.496C94.4209 195.544 96.1709 195.068 98.1589 195.068ZM98.1169 198.092C96.3529 198.092 94.9529 198.666 93.9169 199.814C92.9089 200.934 92.3069 202.502 92.1109 204.518H103.577C103.549 202.614 103.101 201.074 102.233 199.898C101.365 198.694 99.9929 198.092 98.1169 198.092ZM125.898 195.11C128.642 195.11 130.672 195.712 131.988 196.916C133.304 198.12 133.962 200.038 133.962 202.67V218H131.274L130.56 214.808H130.392C129.412 216.04 128.376 216.95 127.284 217.538C126.22 218.126 124.736 218.42 122.832 218.42C120.788 218.42 119.094 217.888 117.75 216.824C116.406 215.732 115.734 214.038 115.734 211.742C115.734 209.502 116.616 207.78 118.38 206.576C120.144 205.344 122.86 204.672 126.528 204.56L130.35 204.434V203.09C130.35 201.214 129.944 199.912 129.132 199.184C128.32 198.456 127.172 198.092 125.688 198.092C124.512 198.092 123.392 198.274 122.328 198.638C121.264 198.974 120.27 199.366 119.346 199.814L118.212 197.042C119.192 196.51 120.354 196.062 121.698 195.698C123.042 195.306 124.442 195.11 125.898 195.11ZM126.99 207.122C124.19 207.234 122.244 207.682 121.152 208.466C120.088 209.25 119.556 210.356 119.556 211.784C119.556 213.044 119.934 213.968 120.69 214.556C121.474 215.144 122.468 215.438 123.672 215.438C125.576 215.438 127.158 214.92 128.418 213.884C129.678 212.82 130.308 211.196 130.308 209.012V206.996L126.99 207.122ZM155.615 195.068C156.035 195.068 156.483 195.096 156.959 195.152C157.463 195.18 157.897 195.236 158.261 195.32L157.799 198.722C157.435 198.638 157.029 198.568 156.581 198.512C156.161 198.456 155.755 198.428 155.363 198.428C154.215 198.428 153.137 198.75 152.129 199.394C151.121 200.01 150.309 200.892 149.693 202.04C149.105 203.16 148.811 204.476 148.811 205.988V218H145.115V195.488H148.139L148.559 199.604H148.727C149.455 198.372 150.393 197.308 151.541 196.412C152.689 195.516 154.047 195.068 155.615 195.068ZM177.501 195.068C180.189 195.068 182.219 195.726 183.591 197.042C184.963 198.33 185.649 200.43 185.649 203.342V218H181.995V203.594C181.995 199.982 180.315 198.176 176.955 198.176C174.463 198.176 172.741 198.876 171.789 200.276C170.837 201.676 170.361 203.692 170.361 206.324V218H166.665V195.488H169.647L170.193 198.554H170.403C171.131 197.378 172.139 196.51 173.427 195.95C174.715 195.362 176.073 195.068 177.501 195.068Z" fill="url(#paint1_linear)"/>
<defs>
<filter id="filter0_d" x="22" y="0" width="145.418" height="154.065" filterUnits="userSpaceOnUse" color-interpolation-filters="sRGB">
<feFlood flood-opacity="0" result="BackgroundImageFix"/>
<feColorMatrix in="SourceAlpha" type="matrix" values="0 0 0 0 0 0 0 0 0 0 0 0 0 0 0 0 0 0 127 0"/>
<feOffset dy="4"/>
<feGaussianBlur stdDeviation="2"/>
<feColorMatrix type="matrix" values="0 0 0 0 0 0 0 0 0 0 0 0 0 0 0 0 0 0 0.25 0"/>
<feBlend mode="normal" in2="BackgroundImageFix" result="effect1_dropShadow"/>
<feBlend mode="normal" in="SourceGraphic" in2="effect1_dropShadow" result="shape"/>
</filter>
<linearGradient id="paint0_linear" x1="94.709" y1="0" x2="94.709" y2="146.065" gradientUnits="userSpaceOnUse">
<stop stop-color="#98A8FA"/>
<stop offset="1" stop-color="#9EED3A" stop-opacity="0"/>
</linearGradient>
<linearGradient id="paint1_linear" x1="0" y1="209.203" x2="195.278" y2="209.203" gradientUnits="userSpaceOnUse">
<stop stop-color="#4F61A0"/>
<stop offset="1" stop-color="#6092C0" stop-opacity="0.51"/>
</linearGradient>
</defs>
</svg>
