<svg width="33" height="44" viewBox="0 0 33 44" fill="none" xmlns="http://www.w3.org/2000/svg">
<path d="M0 0H19.9737V13.0204H33V44H0V0Z" fill="#D88383"/>
<path d="M20 13H33L20 0V13Z" fill="#B76868"/>
<path d="M13.1382 22.4473C13.1382 23.0977 12.9155 23.5986 12.4702 23.9502C12.0278 24.2988 11.3936 24.4731 10.5674 24.4731H9.81152V27H9.06445V20.5752H10.73C12.3354 20.5752 13.1382 21.1992 13.1382 22.4473ZM9.81152 23.8315H10.4839C11.146 23.8315 11.625 23.7246 11.9209 23.5107C12.2168 23.2969 12.3647 22.9541 12.3647 22.4824C12.3647 22.0576 12.2256 21.7412 11.9473 21.5332C11.6689 21.3252 11.2354 21.2212 10.6465 21.2212H9.81152V23.8315ZM19.6157 23.7261C19.6157 24.7866 19.3271 25.5981 18.75 26.1606C18.1758 26.7202 17.3481 27 16.2671 27H14.4873V20.5752H16.4561C17.4551 20.5752 18.2314 20.8521 18.7852 21.4058C19.3389 21.9595 19.6157 22.7329 19.6157 23.7261ZM18.8247 23.7524C18.8247 22.9146 18.6138 22.2832 18.1919 21.8584C17.7729 21.4336 17.1489 21.2212 16.3198 21.2212H15.2344V26.354H16.144C17.0347 26.354 17.7041 26.1357 18.1523 25.6992C18.6006 25.2598 18.8247 24.6108 18.8247 23.7524ZM21.7998 27H21.0527V20.5752H24.6343V21.2388H21.7998V23.5898H24.4629V24.2534H21.7998V27Z" fill="#4E4747"/>
</svg>
