<svg width="128" height="128" viewBox="0 0 128 128" fill="none" xmlns="http://www.w3.org/2000/svg">
<rect x="4" y="4" width="120" height="120" rx="20" stroke="currentColor" stroke-width="8"/>
<circle cx="33.5" cy="43.6167" r="11.6167" fill="currentColor"/>
<path d="M54 74.4265C54 83.5169 44.8218 74.4265 33.5 74.4265C22.1782 74.4265 13 83.5169 13 74.4265C13 65.336 22.1782 57.9667 33.5 57.9667C44.8218 57.9667 54 65.336 54 74.4265Z" fill="currentColor"/>
<circle cx="94.8529" cy="43.25" r="11.25" fill="currentColor"/>
<path d="M114.706 73.0873C114.706 81.8909 105.817 73.0873 94.8529 73.0873C83.8885 73.0873 75 81.8909 75 73.0873C75 64.2838 83.8885 57.1471 94.8529 57.1471C105.817 57.1471 114.706 64.2838 114.706 73.0873Z" fill="currentColor"/>
<ellipse cx="64" cy="52.755" rx="17.5667" ry="16.755" fill="currentColor"/>
<path d="M95 94.0804C95 107.192 81.1208 94.0804 64 94.0804C46.8792 94.0804 33 107.192 33 94.0804C33 80.969 46.8792 70.34 64 70.34C81.1208 70.34 95 80.969 95 94.0804Z" fill="currentColor"/>
</svg>
