<svg width="128" height="74" viewBox="0 0 128 74" fill="none" xmlns="http://www.w3.org/2000/svg">
<rect width="99" height="74" rx="14" fill="#593D3D"/>
<rect width="99" height="74" rx="14" fill="#593D3D"/>
<path d="M83.1893 41.1157C80.2273 39.6692 80.1882 35.4619 83.1228 33.9605L122.178 13.9787C124.84 12.6169 128 14.5499 128 17.5396V56.595C128 59.5522 124.902 61.487 122.245 60.1893L83.1893 41.1157Z" fill="#593D3D"/>
<path d="M83.1893 41.1157C80.2273 39.6692 80.1882 35.4619 83.1228 33.9605L122.178 13.9787C124.84 12.6169 128 14.5499 128 17.5396V56.595C128 59.5522 124.902 61.487 122.245 60.1893L83.1893 41.1157Z" fill="#593D3D"/>
<path d="M66 40.4641C68.6667 38.9245 68.6667 35.0755 66 33.5359L45 21.4115C42.3333 19.8719 39 21.7964 39 24.8756V49.1244C39 52.2036 42.3333 54.1281 45 52.5885L66 40.4641Z" fill="white"/>
</svg>
