<svg width="128" height="109" viewBox="0 0 128 109" fill="none" xmlns="http://www.w3.org/2000/svg">
<rect y="18" width="99" height="74" rx="14" fill="#593D3D"/>
<rect y="18" width="99" height="74" rx="14" fill="#593D3D"/>
<path d="M83.1893 59.1157C80.2273 57.6692 80.1882 53.4619 83.1228 51.9605L122.178 31.9787C124.84 30.6169 128 32.5499 128 35.5396V74.595C128 77.5522 124.902 79.487 122.245 78.1893L83.1893 59.1157Z" fill="#593D3D"/>
<path d="M83.1893 59.1157C80.2273 57.6692 80.1882 53.4619 83.1228 51.9605L122.178 31.9787C124.84 30.6169 128 32.5499 128 35.5396V74.595C128 77.5522 124.902 79.487 122.245 78.1893L83.1893 59.1157Z" fill="#593D3D"/>
<path d="M66 58.4641C68.6667 56.9245 68.6667 53.0755 66 51.5359L45 39.4115C42.3333 37.8719 39 39.7964 39 42.8756V67.1244C39 70.2036 42.3333 72.1281 45 70.5885L66 58.4641Z" fill="white"/>
<line x1="91.8226" y1="4.88091" x2="21.8809" y2="103.177" stroke="#C20505" stroke-width="7" stroke-linecap="round"/>
</svg>
